<svg width="128" height="128" viewBox="0 0 128 128" fill="none" xmlns="http://www.w3.org/2000/svg">
<circle cx="64" cy="64" r="64" fill="white" fill-opacity="0.16"/>
<circle cx="64" cy="64" r="48" fill="#2D68FF"/>
<path d="M59.4166 70.5706V57.4293C59.4169 57.2649 59.4614 57.1036 59.5454 56.9622C59.6295 56.8209 59.75 56.7048 59.8943 56.6261C60.0387 56.5474 60.2016 56.5089 60.3659 56.5147C60.5302 56.5206 60.6899 56.5705 60.8283 56.6593L71.051 63.2281C71.1804 63.3111 71.2869 63.4252 71.3607 63.5601C71.4344 63.695 71.4731 63.8462 71.4731 64C71.4731 64.1537 71.4344 64.305 71.3607 64.4398C71.2869 64.5747 71.1804 64.6889 71.051 64.7718L60.8283 71.3425C60.6899 71.4313 60.5302 71.4812 60.3659 71.487C60.2016 71.4929 60.0387 71.4544 59.8943 71.3757C59.75 71.2969 59.6295 71.1808 59.5454 71.0395C59.4614 70.8982 59.4169 70.7369 59.4166 70.5725V70.5706Z" fill="white"/>
<path d="M43.8334 63.9999C43.8334 52.8624 52.8625 43.8333 64 43.8333C75.1375 43.8333 84.1667 52.8624 84.1667 63.9999C84.1667 75.1374 75.1375 84.1666 64 84.1666C52.8625 84.1666 43.8334 75.1374 43.8334 63.9999ZM64 46.5833C59.3809 46.5833 54.9509 48.4182 51.6846 51.6845C48.4183 54.9507 46.5834 59.3807 46.5834 63.9999C46.5834 68.6191 48.4183 73.0491 51.6846 76.3154C54.9509 79.5816 59.3809 81.4166 64 81.4166C68.6192 81.4166 73.0492 79.5816 76.3155 76.3154C79.5817 73.0491 81.4167 68.6191 81.4167 63.9999C81.4167 59.3807 79.5817 54.9507 76.3155 51.6845C73.0492 48.4182 68.6192 46.5833 64 46.5833Z" fill="white"/>
</svg>
